<svg width="326" height="352" viewBox="0 0 326 352" fill="none" xmlns="http://www.w3.org/2000/svg">
<circle cx="163" cy="147" r="118" stroke="#2E4BB1" stroke-opacity="0.3" stroke-width="2" stroke-dasharray="5 2"/>
<circle cx="163" cy="147" r="87" stroke="#2E4BB1" stroke-opacity="0.3" stroke-width="2" stroke-dasharray="5 2"/>
<path d="M146.174 185C158.39 218.168 141.405 254.959 108.237 267.175C75.0684 279.39 38.2775 262.405 26.0617 229.237C13.846 196.068 30.8313 159.278 63.9996 147.062C97.1678 134.846 133.959 151.831 146.174 185Z" fill="#E4D4E4"/>
<mask id="mask0_32_534" style="mask-type:alpha" maskUnits="userSpaceOnUse" x="22" y="143" width="129" height="129">
<path d="M146.174 185C158.39 218.168 141.405 254.959 108.237 267.175C75.0684 279.39 38.2775 262.405 26.0617 229.237C13.846 196.068 30.8313 159.278 63.9996 147.062C97.1678 134.846 133.959 151.831 146.174 185Z" fill="#E3D1E3"/>
</mask>
<g mask="url(#mask0_32_534)">
<path d="M74.0016 200.026C79.8306 207.458 79.7905 223.064 77.6937 229.494C88.5167 233.89 102.126 235.766 110.738 232.817L107.42 218.029C103.346 211.246 101.548 203.62 101.127 199.348L74.0016 200.026Z" fill="#FCCBBB"/>
<path d="M101.127 199.348L74.0016 200.026C80.0305 204.349 94.4726 212.589 104.01 210.959C102.28 206.433 101.404 202.162 101.127 199.348Z" fill="#020101"/>
<path d="M93.196 156.983C93.87 157.342 135.071 209.132 79.9048 202.248C27.7333 185.192 67.0275 164.965 93.196 156.983Z" fill="#FCCBBB"/>
<path d="M76.9544 190.728C70.9319 185.791 67.1504 185.319 65.6557 190.01C64.229 196.043 72.2971 197.789 77.0917 199.971L78.3603 210.649C69.7618 213.032 55.7153 211.53 46.3683 197.799C33.0029 170.219 55.9123 145.956 84.5644 147.196C100.125 147.869 100.548 158.88 98.8145 164.302L79.7046 170.131C83.284 183.717 78.3904 188.032 76.9544 190.728Z" fill="#001F52"/>
<path d="M76.9546 190.728C70.9322 185.79 67.1506 185.319 65.6559 190.01C64.5577 194.654 69.0858 196.758 73.4159 198.476C75.6413 199.358 77.4273 202.326 77.5932 204.658C68.6425 204.201 56.8001 200.431 61.0037 187.557C65.1004 176.524 74.2284 182.46 76.1268 185.743C76.1531 178.797 76.8156 174.948 74.1771 168.388C79.6892 166.933 109.897 161.835 84.5647 147.196C100.125 147.869 100.548 158.88 98.8147 164.302L79.7048 170.13C83.2842 183.717 78.3906 188.032 76.9546 190.728Z" fill="#00112C"/>
<path d="M112.643 223.596C65.5247 197.217 44.2381 259.723 42.6105 267.803C22.9529 365.386 92.8925 489.027 119.475 479.237C115.534 429.475 205.908 376.838 163.859 337.659C121.81 298.479 145.668 275.296 112.643 223.596Z" fill="#CA5230"/>
<path d="M112.644 223.596C102.655 218.004 93.8277 216.407 86.1021 217.438C102.092 250.027 135.003 312.305 138.733 300.701C131.526 278.897 134.179 257.31 112.644 223.596Z" fill="#B34020"/>
<path d="M112.643 223.596C65.5247 197.217 44.2381 259.723 42.6105 267.803C22.9529 365.386 92.8924 489.027 119.475 479.237C115.534 429.475 205.908 376.838 163.859 337.659" stroke="black"/>
<path d="M78.6434 212.525C75.7897 214.152 75.6916 216.49 75.7094 217.059L79.6156 214.779C78.3764 214.925 78.83 213.032 78.6434 212.525Z" fill="#020101"/>
<path d="M112.683 224.509C97.5416 218.738 76.8235 220.082 76.8235 220.082C75.7623 218.765 74.8291 216.232 76.1635 215.165C84.9641 212.499 114.032 213.302 114.032 213.302L112.683 224.509Z" fill="white"/>
<path d="M112.683 224.509L114.032 213.302C114.032 213.302 84.9641 212.499 76.1635 215.165C74.8291 216.232 75.7623 218.765 76.8235 220.082" stroke="black" stroke-width="0.5"/>
</g>
<path d="M145.705 185.172C157.826 218.081 140.973 254.585 108.064 266.705C75.155 278.826 38.6514 261.973 26.5311 229.064C14.4108 196.155 31.2634 159.651 64.1725 147.531C97.0816 135.411 133.585 152.263 145.705 185.172Z" stroke="#FE9477" stroke-opacity="0.33"/>
<path d="M307.588 82.588C307.588 117.934 278.934 146.588 243.588 146.588C208.242 146.588 179.588 117.934 179.588 82.588C179.588 47.2418 208.242 18.588 243.588 18.588C278.934 18.588 307.588 47.2418 307.588 82.588Z" fill="#DFCDDF"/>
<mask id="mask1_32_534" style="mask-type:alpha" maskUnits="userSpaceOnUse" x="179" y="18" width="129" height="129">
<path d="M307.588 82.588C307.588 117.934 278.934 146.588 243.588 146.588C208.242 146.588 179.588 117.934 179.588 82.588C179.588 47.2418 208.242 18.588 243.588 18.588C278.934 18.588 307.588 47.2418 307.588 82.588Z" fill="#C4C4C4"/>
</mask>
<g mask="url(#mask1_32_534)">
<path d="M225.278 82.0628C226.523 101.057 209.06 103.73 200.367 103.081C221.386 152.902 267.704 127.992 267.704 120.986C248.087 115.069 245.128 91.9232 246.685 80.8951C242.923 81.2843 233.374 82.0628 225.278 82.0628Z" fill="#FCCBBB"/>
<path d="M246.686 80.8951C242.924 81.2843 233.375 82.0628 225.279 82.0628C225.728 88.9122 223.744 93.6392 220.616 96.8535C227.879 96.2047 243.261 92.1049 246.686 80.8951Z" fill="#EE987C"/>
<path d="M201.698 106.064C201.244 105.101 200.801 104.107 200.368 103.081C205.199 103.442 212.74 102.776 218.272 98.8525C222.931 102.046 235.522 106.954 248.614 101.037C251.415 109.627 257.147 117.802 267.704 120.986C273.932 120.986 284.831 120.986 297.675 123.321C293.653 148.751 286.465 202.879 289.891 215.958C291.152 220.775 292.38 224.333 293.484 227.533C296.128 235.194 297.675 238.665 297.675 254.588C252.784 254.588 207.893 254.588 163.002 254.588C167.037 253.42 178.761 228.958 180.926 210.898C181.952 202.334 180.926 188.711 169.619 177.035C172.106 172.415 174.574 167.995 176.982 163.683C187.415 144.995 196.727 128.314 201.698 106.064Z" fill="#CA5230"/>
<path d="M297.674 123.321C293.652 148.751 286.465 202.879 289.89 215.957C293.939 231.417 297.639 233.91 298.03 253.226C284.937 253.226 255.093 246.064 237.344 218.974C239.29 216.638 240.458 214.562 241.626 213.135L230.727 205.351C225.148 210.281 213.212 210.021 210.487 198.734C206.595 184.332 220.996 195.62 230.727 180.051C235.398 180.829 237.733 186.538 238.901 187.446C247.723 187.965 267.937 189.237 271.985 193.285C270.817 185.5 262.255 150.185 289.111 128.283C291.836 126.061 294.95 124.78 297.674 123.321Z" fill="#A33618"/>
<path d="M208.964 126.509C214.345 120.477 214.781 120.759 210.271 127.354C207.29 131.65 207.726 131.932 211.579 128.199C215.462 124.486 215.898 124.767 212.887 129.044C207.116 137.411 207.551 137.692 214.194 129.889C220.755 122.033 221.191 122.315 215.502 130.734C211.481 136.631 211.916 136.912 216.809 131.579C221.728 126.263 222.164 126.545 218.117 132.424C215.96 135.47 216.396 135.752 219.425 133.269C222.495 130.814 222.931 131.095 220.732 134.115C214.644 142.8 215.08 143.082 222.04 134.96" stroke="white" stroke-opacity="0.76" stroke-width="0.5"/>
<path d="M252.558 116.389C257.939 110.357 258.375 110.639 253.865 117.234C250.884 121.53 251.32 121.812 255.173 118.079C259.056 114.366 259.492 114.647 256.48 118.924C250.709 127.291 251.145 127.572 257.788 119.769C264.348 111.913 264.784 112.195 259.096 120.614C255.074 126.511 255.51 126.792 260.403 121.459C265.322 116.143 265.758 116.425 261.711 122.304C259.554 125.351 259.99 125.632 263.018 123.15C266.089 120.694 266.524 120.976 264.326 123.995C258.238 132.68 258.673 132.962 265.634 124.84" stroke="white" stroke-opacity="0.76" stroke-width="0.5"/>
<path d="M201.697 106.064C201.243 105.101 200.8 104.107 200.367 103.081C205.199 103.442 212.74 102.776 218.272 98.8525C216.403 102.709 206.443 105.267 201.697 106.064Z" fill="#A33618"/>
<path d="M248.613 101.037C251.414 109.627 257.146 117.802 267.704 120.986H267.705C273.932 120.986 284.83 120.986 297.674 123.321C297.305 125.659 296.919 129.018 296.507 131.786C272.764 118.942 261.865 133.733 245.518 102.245C246.544 101.906 247.577 101.506 248.613 101.037Z" fill="#A33618"/>
<path d="M202.313 103.164C196.466 132.132 183.348 151.537 169.618 177.035C180.925 188.711 181.951 202.334 180.925 210.898C180.719 212.617 180.423 214.41 180.052 216.249C185.966 213.914 192.583 207.297 193.361 202.237C213.212 204.183 213.601 177.326 205.427 183.943C197.253 190.56 192.193 184.332 192.193 182.775C192.193 174.602 189.469 175.769 186.744 180.44C185.706 179.791 178.57 175.769 173.121 175.769C186.355 159.422 206.595 120.888 202.313 103.164Z" fill="#A33618"/>
<path d="M213.603 101.303C215.241 100.683 216.826 99.8792 218.273 98.8525C220.777 100.569 225.573 102.781 231.507 103.541C236.612 104.194 242.56 103.773 248.615 101.037C249.536 103.861 250.773 106.64 252.394 109.211C241.703 114.115 234.015 107.474 231.507 103.541C221.231 111.148 215.289 105.219 213.603 101.303Z" fill="white"/>
<path d="M213.602 101.303C215.288 105.219 221.23 111.148 231.506 103.541C234.014 107.474 241.702 114.115 252.393 109.211" stroke="black"/>
<path d="M273.542 194.939C271.674 144.184 288.852 126.046 297.674 123.321C324.531 141.225 329.592 228.704 319.083 245.441C308.574 262.178 261.097 242.088 242.722 219.071L256.673 191.047C263.63 192.083 269.869 193.511 273.542 194.939Z" fill="#CA5230"/>
<path d="M289.891 128.552C292.723 125.658 295.461 124.004 297.674 123.321C320.443 138.5 327.546 203.684 322.778 233.375C325.734 186.045 302.085 143.772 289.891 128.552Z" fill="#A33618"/>
<path d="M289.924 134.293C295.305 128.262 295.741 128.544 291.231 135.138C288.25 139.435 288.686 139.716 292.539 135.984C296.422 132.27 296.858 132.552 293.847 136.829C288.076 145.195 288.512 145.477 295.154 137.674C301.715 129.817 302.151 130.099 296.462 138.519C292.441 144.415 292.876 144.697 297.769 139.364C302.688 134.048 303.124 134.329 299.077 140.209C296.92 143.255 297.356 143.537 300.385 141.054C303.455 138.598 303.891 138.88 301.692 141.899C295.604 150.585 296.04 150.867 303 142.744" stroke="white" stroke-opacity="0.76" stroke-width="0.5"/>
<path d="M202.314 103.164C196.466 132.132 183.348 151.537 169.618 177.034C173.162 177.034 177.397 178.516 181.295 179.98C180.906 186.012 181.84 199.28 188.691 204.097C176.235 218.974 134.588 239.742 134.588 201.556C134.588 176.157 159.888 112.714 202.314 103.164Z" fill="#CA5230"/>
<path d="M175.49 123.395C180.871 117.363 181.307 117.645 176.798 124.24C173.817 128.536 174.253 128.818 178.105 125.085C181.988 121.372 182.424 121.653 179.413 125.93C173.642 134.297 174.078 134.578 180.721 126.775C187.281 118.919 187.717 119.201 182.028 127.62C178.007 133.517 178.443 133.799 183.336 128.465C188.255 123.149 188.691 123.431 184.643 129.311C182.487 132.357 182.922 132.638 185.951 130.156C189.021 127.7 189.457 127.982 187.259 131.001C181.17 139.687 181.606 139.968 188.566 131.846" stroke="white" stroke-opacity="0.76" stroke-width="0.5"/>
<path d="M225.278 82.0627C226.524 101.057 209.06 103.73 200.368 103.081C198.681 101.265 197.487 96.0749 206.206 89.8473C208.541 87.5119 213.212 83.2304 209.32 62.9905C205.428 42.7506 213.601 40.4152 216.326 39.6368C216.326 36.5229 232.674 20.5646 246.686 22.8023C260.698 25.04 270.039 45.3776 277.824 62.9905C285.609 80.6034 343.993 101.427 316.358 157.865C297.285 132.954 305.459 117.093 267.704 120.986C248.087 115.069 245.129 91.9232 246.686 80.895C242.923 81.2842 233.374 82.0627 225.278 82.0627Z" fill="#001F52"/>
<path d="M225.278 82.0627C226.523 101.057 209.06 103.73 200.367 103.081C208.281 98.7996 223.02 86.9671 218.661 73.889C233.296 73.889 243.442 72.0726 246.685 71.1644C250.967 84.3981 265.602 110.321 289.89 108.141C314.178 105.961 321.11 121.764 321.54 129.938C322.253 137.848 319.222 149.748 317.525 159.811C298.453 134.9 301.956 125.169 267.704 120.986C248.087 115.069 245.128 91.9232 246.685 80.895C242.923 81.2843 233.374 82.0627 225.278 82.0627Z" fill="#00112C"/>
<path d="M220.997 45.8645C217.884 52.4814 205.428 98.021 246.686 80.895C246.686 41.5829 227.614 41.583 220.997 45.8645Z" fill="#FCCBBB"/>
<path d="M220.997 45.8645C227.614 41.583 246.686 41.5829 246.686 80.895C242.949 51.7031 228.003 45.378 220.997 45.8645Z" fill="#EE987C"/>
</g>
<path d="M302.762 60.2292C314.882 93.1383 298.03 129.642 265.121 141.762C232.212 153.882 195.708 137.03 183.588 104.121C171.467 71.2116 188.32 34.7081 221.229 22.5878C254.138 10.4675 290.642 27.3201 302.762 60.2292Z" stroke="#FE9477" stroke-opacity="0.33"/>
<circle cx="238" cy="238" r="27" fill="#001F52" fill-opacity="0.88"/>
<path d="M249.232 224.766L249.242 225.009L249.427 252.264C249.444 254.967 246.363 256.446 244.281 254.846L244.077 254.675L234.711 246.256L222.422 243.036C219.81 242.351 219.175 238.971 221.255 237.372L221.472 237.218L244.277 222.32C246.34 220.977 249.046 222.368 249.232 224.766ZM245.756 224.361L245.646 224.419L222.841 239.316C222.367 239.626 222.442 240.334 222.928 240.565L223.058 240.612L234.679 243.656L240.493 232.667C240.788 232.111 241.441 231.867 242.017 232.071L242.187 232.145C242.743 232.44 242.986 233.093 242.783 233.669L242.708 233.839L236.886 244.843L245.752 252.812C246.174 253.191 246.816 252.945 246.91 252.418L246.921 252.281L246.736 225.025C246.733 224.499 246.202 224.171 245.756 224.361Z" fill="white"/>
<circle cx="86" cy="60" r="23" fill="#001F52" fill-opacity="0.88"/>
<path d="M92.3354 48C94.4549 48.0227 96.4723 48.8772 97.9176 50.3646C99.3629 51.8519 100.11 53.8423 99.9869 55.812L99.985 64.1279C100.11 66.1577 99.3629 68.1481 97.9176 69.6354C96.4723 71.1228 94.4549 71.9773 92.3236 72H79.6387C75.2013 72 72 68.5847 72 64.188V55.812C72 51.4153 75.2013 48 79.6387 48H92.3354ZM92.3117 50.0378H79.6387C76.4279 50.0378 74.1244 52.4954 74.1244 55.812V64.188C74.1244 67.5046 76.4279 69.9622 79.6387 69.9622H92.3117C93.8502 69.9457 95.3145 69.3254 96.3636 68.2458C97.4127 67.1662 97.9551 65.7215 97.8624 64.188L97.8643 55.7518C97.9551 54.2785 97.4127 52.8338 96.3636 51.7542C95.3145 50.6746 93.8502 50.0543 92.3117 50.0378ZM94.4336 55.5178C94.7669 55.9172 94.736 56.4835 94.3835 56.8473L94.2682 56.9501L88.5184 61.3648C87.1219 62.409 85.1923 62.4612 83.7363 61.5167L83.5104 61.3593L77.7222 56.9527C77.2627 56.6029 77.1858 55.9619 77.5505 55.5211C77.882 55.1204 78.4643 55.023 78.9127 55.2715L79.0428 55.3564L84.8237 59.7575C85.4719 60.2421 86.3605 60.2794 87.0371 59.8758L87.2016 59.7657L92.9406 55.3591C93.3986 55.0074 94.0671 55.0785 94.4336 55.5178Z" fill="white"/>
<path d="M23.3438 325H25.8536V313.027H30.0625V310.908H19.125V313.027H23.3438V325ZM33.6143 313.477H35.3135L33.5654 310.293H31.3096L33.6143 313.477ZM33.0088 325H35.4404V314.648H33.0088V325ZM37.7519 325H40.1836V318.662C40.1836 317.402 41.0039 316.484 42.1758 316.484C43.3086 316.484 44.0117 317.207 44.0117 318.369V325H46.375V318.604C46.375 317.354 47.1758 316.484 48.3476 316.484C49.539 316.484 50.2031 317.217 50.2031 318.496V325H52.6347V317.891C52.6347 315.82 51.2969 314.434 49.2558 314.434C47.7617 314.434 46.5312 315.234 46.0332 316.523H45.9746C45.5937 315.195 44.5488 314.434 43.1035 314.434C41.7363 314.434 40.6719 315.176 40.2324 316.309H40.1836V314.648H37.7519V325ZM59.1815 325H61.6132V321.406L62.4335 320.547L65.705 325H68.5077L64.2401 319.102L68.3417 314.648H65.5292L61.662 318.945H61.6132V310.908H59.1815V325ZM70.9755 313.164C71.7372 313.164 72.3231 312.559 72.3231 311.836C72.3231 311.094 71.7372 310.498 70.9755 310.498C70.2137 310.498 69.618 311.094 69.618 311.836C69.618 312.559 70.2137 313.164 70.9755 313.164ZM69.7548 325H72.1864V314.648H69.7548V325ZM80.7284 310.127H82.203L84.4393 307.266H82.3006L80.7284 310.127ZM75.6405 313.525H77.4959L78.9803 311.562L80.494 313.525H82.3494L80.0448 310.527H77.9354L75.6405 313.525ZM79.0487 325.205C81.7537 325.205 83.2772 323.604 83.5994 322.012L83.6287 321.904H81.3534L81.3338 321.973C81.0994 322.666 80.3084 323.311 79.0975 323.311C77.5155 323.311 76.5194 322.236 76.4803 320.42H83.7264V319.639C83.7264 316.514 81.8905 314.434 78.9315 314.434C75.9725 314.434 74.0682 316.582 74.0682 319.844V319.854C74.0682 323.145 75.9432 325.205 79.0487 325.205ZM78.9608 316.338C80.2498 316.338 81.1873 317.158 81.3631 318.799H76.5096C76.7049 317.207 77.6717 316.338 78.9608 316.338ZM85.5398 325H87.9715V318.662C87.9715 317.402 88.7918 316.484 89.9637 316.484C91.0965 316.484 91.7996 317.207 91.7996 318.369V325H94.1629V318.604C94.1629 317.354 94.9637 316.484 96.1355 316.484C97.327 316.484 97.991 317.217 97.991 318.496V325H100.423V317.891C100.423 315.82 99.0848 314.434 97.0437 314.434C95.5496 314.434 94.3191 315.234 93.8211 316.523H93.7625C93.3816 315.195 92.3367 314.434 90.8914 314.434C89.5242 314.434 88.4598 315.176 88.0203 316.309H87.9715V314.648H85.5398V325ZM109.655 325H112.331L115.973 314.648H113.434L111.042 322.744H110.983L108.581 314.648H105.993L109.655 325ZM120.873 313.477H122.572L120.824 310.293H118.568L120.873 313.477ZM120.16 325.176C121.527 325.176 122.679 324.492 123.275 323.408H123.334V325H125.765V317.881C125.765 315.801 124.095 314.434 121.508 314.434C118.881 314.434 117.289 315.811 117.142 317.646L117.133 317.764H119.388L119.408 317.676C119.564 316.914 120.267 316.377 121.42 316.377C122.65 316.377 123.334 317.012 123.334 318.057V318.77L120.629 318.936C118.119 319.092 116.693 320.195 116.693 322.031V322.051C116.693 323.896 118.09 325.176 120.16 325.176ZM119.115 321.953V321.943C119.115 321.123 119.769 320.605 120.97 320.527L123.334 320.381V321.162C123.334 322.393 122.279 323.32 120.883 323.32C119.818 323.32 119.115 322.803 119.115 321.953ZM136.785 325.205C139.402 325.205 141.15 323.564 141.336 321.406L141.345 321.338H139.05L139.031 321.426C138.806 322.51 138.025 323.242 136.795 323.242C135.261 323.242 134.265 321.992 134.265 319.834V319.824C134.265 317.705 135.252 316.406 136.785 316.406C138.074 316.406 138.816 317.217 139.021 318.223L139.041 318.311H141.336L141.326 318.232C141.179 316.162 139.48 314.434 136.755 314.434C133.738 314.434 131.785 316.504 131.785 319.805V319.814C131.785 323.135 133.709 325.205 136.785 325.205ZM143.11 325H145.542V319.033C145.542 317.529 146.44 316.484 147.817 316.484C149.213 316.484 150.014 317.441 150.014 319.033V325H152.446V318.555C152.446 316.055 151.02 314.434 148.794 314.434C147.241 314.434 146.137 315.146 145.6 316.387H145.542V310.908H143.11V325ZM159.23 325.205C162.267 325.205 164.24 323.184 164.24 319.824V319.805C164.24 316.465 162.238 314.434 159.22 314.434C156.212 314.434 154.22 316.484 154.22 319.805V319.824C154.22 323.174 156.183 325.205 159.23 325.205ZM159.24 323.242C157.687 323.242 156.701 322.002 156.701 319.824V319.805C156.701 317.656 157.707 316.406 159.22 316.406C160.763 316.406 161.759 317.646 161.759 319.805V319.824C161.759 321.992 160.773 323.242 159.24 323.242ZM159.23 329.141C160.002 329.141 160.587 328.535 160.587 327.812C160.587 327.08 160.002 326.484 159.23 326.484C158.478 326.484 157.873 327.08 157.873 327.812C157.873 328.535 158.478 329.141 159.23 329.141ZM166.043 325H168.475V318.994C168.475 317.5 169.364 316.484 170.76 316.484C172.147 316.484 172.831 317.314 172.831 318.789V325H175.262V318.301C175.262 315.898 173.963 314.434 171.688 314.434C170.116 314.434 169.061 315.156 168.524 316.27H168.475V314.648H166.043V325ZM185.305 325H187.776V310.908H185.286L181.604 313.496V315.811L185.247 313.311H185.305V325ZM195.524 325H197.955V318.994C197.955 317.5 198.844 316.484 200.241 316.484C201.627 316.484 202.311 317.314 202.311 318.789V325H204.743V318.301C204.743 315.898 203.444 314.434 201.168 314.434C199.596 314.434 198.541 315.156 198.004 316.27H197.955V314.648H195.524V325ZM211.605 328.623C214.603 328.623 216.488 327.051 216.488 324.707V314.648H214.056V316.406H213.997C213.411 315.215 212.279 314.434 210.814 314.434C208.197 314.434 206.507 316.445 206.507 319.717V319.727C206.507 322.949 208.177 324.941 210.775 324.941C212.259 324.941 213.431 324.238 214.007 323.135H214.056V324.629C214.056 325.947 213.187 326.787 211.605 326.787C210.335 326.787 209.505 326.338 209.242 325.742L209.212 325.664H206.82L206.839 325.752C207.132 327.373 208.861 328.623 211.605 328.623ZM211.536 323.066C209.974 323.066 208.988 321.807 208.988 319.766V319.756C208.988 317.744 209.974 316.484 211.536 316.484C213.04 316.484 214.066 317.764 214.066 319.766V319.775C214.066 321.787 213.05 323.066 211.536 323.066ZM222.246 325.205C223.809 325.205 224.873 324.482 225.41 323.379H225.459V325H227.891V315.449C229.385 314.883 229.864 313.867 229.864 311.768H227.91C227.93 313.77 227.491 314.375 225.459 314.648V320.645C225.459 322.148 224.571 323.154 223.174 323.154C221.787 323.154 221.104 322.324 221.104 320.859V314.648H218.672V321.338C218.672 323.74 219.971 325.205 222.246 325.205ZM234.001 313.477H235.691L233.952 310.293H231.697L234.001 313.477ZM235.105 325.205C238.142 325.205 240.115 323.184 240.115 319.824V319.805C240.115 317.734 239.343 316.172 238.044 315.283C239.831 314.775 240.378 313.77 240.417 311.768H238.474C238.435 313.662 237.79 314.277 235.105 314.434C235.105 314.434 235.105 314.434 235.095 314.434C232.087 314.434 230.095 316.484 230.095 319.805V319.824C230.095 323.174 232.058 325.205 235.105 325.205ZM235.115 323.242C233.562 323.242 232.575 322.002 232.575 319.824V319.805C232.575 317.656 233.581 316.406 235.095 316.406C236.638 316.406 237.634 317.646 237.634 319.805V319.824C237.634 321.992 236.648 323.242 235.115 323.242ZM243.403 313.164C244.164 313.164 244.75 312.559 244.75 311.836C244.75 311.094 244.164 310.498 243.403 310.498C242.641 310.498 242.045 311.094 242.045 311.836C242.045 312.559 242.641 313.164 243.403 313.164ZM242.182 325H244.614V314.648H242.182V325ZM255.018 325.205C256.512 325.205 257.654 324.463 258.24 323.242H258.299V325H260.731V313.594H261.776V312.188H260.731V310.908H258.299V312.188H256.463V313.594H258.299V316.426H258.24C257.654 315.186 256.473 314.434 255.008 314.434C252.41 314.434 250.74 316.475 250.74 319.814V319.824C250.74 323.154 252.401 325.205 255.018 325.205ZM255.75 323.154C254.188 323.154 253.221 321.885 253.221 319.824V319.814C253.221 317.754 254.197 316.484 255.75 316.484C257.244 316.484 258.299 317.793 258.299 319.814V319.824C258.299 321.855 257.254 323.154 255.75 323.154ZM269.605 310.195H270.972C271.577 309.795 271.86 309.287 271.86 308.701C271.86 307.754 270.962 307.168 269.819 307.168C269.341 307.168 268.921 307.246 268.648 307.354V308.535C268.765 308.496 268.98 308.477 269.273 308.477C269.907 308.477 270.366 308.711 270.366 309.111C270.366 309.434 270.093 309.775 269.605 310.146V310.195ZM264.507 313.525H266.362L267.847 311.562L269.36 313.525H271.216L268.911 310.527H266.802L264.507 313.525ZM267.915 325.205C270.62 325.205 272.144 323.604 272.466 322.012L272.495 321.904H270.22L270.2 321.973C269.966 322.666 269.175 323.311 267.964 323.311C266.382 323.311 265.386 322.236 265.347 320.42H272.593V319.639C272.593 316.514 270.757 314.434 267.798 314.434C264.839 314.434 262.935 316.582 262.935 319.844V319.854C262.935 323.145 264.81 325.205 267.915 325.205ZM267.827 316.338C269.116 316.338 270.054 317.158 270.23 318.799H265.376C265.571 317.207 266.538 316.338 267.827 316.338ZM284.433 325.205C287.05 325.205 288.71 323.154 288.71 319.824V319.814C288.71 316.475 287.04 314.434 284.442 314.434C282.978 314.434 281.796 315.186 281.21 316.426H281.151V310.908H278.72V325H281.151V323.242H281.21C281.796 324.463 282.939 325.205 284.433 325.205ZM283.7 323.154C282.196 323.154 281.151 321.855 281.151 319.824V319.814C281.151 317.793 282.206 316.484 283.7 316.484C285.253 316.484 286.23 317.754 286.23 319.814V319.824C286.23 321.885 285.263 323.154 283.7 323.154ZM294.068 309.863H295.543L297.779 307.002H295.641L294.068 309.863ZM294.898 313.574C296.891 313.574 298.189 312.363 298.189 310.605V310.508H296.646V310.547C296.646 311.406 295.973 312.119 294.898 312.119C293.814 312.119 293.141 311.406 293.141 310.547V310.508H291.598V310.605C291.598 312.363 292.896 313.574 294.898 313.574ZM293.57 325.176C294.938 325.176 296.09 324.492 296.686 323.408H296.744V325H299.176V317.881C299.176 315.801 297.506 314.434 294.918 314.434C292.291 314.434 290.699 315.811 290.553 317.646L290.543 317.764H292.799L292.818 317.676C292.975 316.914 293.678 316.377 294.83 316.377C296.061 316.377 296.744 317.012 296.744 318.057V318.77L294.039 318.936C291.529 319.092 290.104 320.195 290.104 322.031V322.051C290.104 323.896 291.5 325.176 293.57 325.176ZM292.525 321.953V321.943C292.525 321.123 293.18 320.605 294.381 320.527L296.744 320.381V321.162C296.744 322.393 295.689 323.32 294.293 323.32C293.229 323.32 292.525 322.803 292.525 321.953ZM305.228 325.205C305.716 325.205 306.146 325.156 306.429 325.117V323.291C306.263 323.301 306.077 323.33 305.843 323.33C304.954 323.33 304.505 323.008 304.505 321.992V316.523H306.429V314.648H304.505V312.021H302.034V314.648H300.569V316.523H302.034V322.197C302.034 324.326 303.06 325.205 305.228 325.205ZM110.137 345.205C111.631 345.205 112.774 344.463 113.36 343.242H113.418V345H115.85V333.594H116.895V332.188H115.85V330.908H113.418V332.188H111.582V333.594H113.418V336.426H113.36C112.774 335.186 111.592 334.434 110.127 334.434C107.53 334.434 105.86 336.475 105.86 339.814V339.824C105.86 343.154 107.52 345.205 110.137 345.205ZM110.869 343.154C109.307 343.154 108.34 341.885 108.34 339.824V339.814C108.34 337.754 109.317 336.484 110.869 336.484C112.363 336.484 113.418 337.793 113.418 339.814V339.824C113.418 341.855 112.373 343.154 110.869 343.154ZM124.773 330.127H126.247L124.675 327.266H122.536L124.773 330.127ZM119.167 333.525H121.023L122.507 331.562L124.03 333.525H125.886L123.571 330.527H121.472L119.167 333.525ZM121.54 345.176C122.907 345.176 124.06 344.492 124.655 343.408H124.714V345H127.146V337.881C127.146 335.801 125.476 334.434 122.888 334.434C120.261 334.434 118.669 335.811 118.523 337.646L118.513 337.764H120.769L120.788 337.676C120.945 336.914 121.648 336.377 122.8 336.377C124.03 336.377 124.714 337.012 124.714 338.057V338.77L122.009 338.936C119.499 339.092 118.073 340.195 118.073 342.031V342.051C118.073 343.896 119.47 345.176 121.54 345.176ZM120.495 341.953V341.943C120.495 341.123 121.15 340.605 122.351 340.527L124.714 340.381V341.162C124.714 342.393 123.659 343.32 122.263 343.32C121.198 343.32 120.495 342.803 120.495 341.953ZM132.875 345.205C134.438 345.205 135.502 344.482 136.039 343.379H136.088V345H138.52V334.648H136.088V340.645C136.088 342.148 135.199 343.154 133.803 343.154C132.416 343.154 131.733 342.324 131.733 340.859V334.648H129.301V341.338C129.301 343.74 130.6 345.205 132.875 345.205ZM149.578 345.205C152.195 345.205 153.943 343.564 154.129 341.406L154.139 341.338H151.844L151.824 341.426C151.6 342.51 150.818 343.242 149.588 343.242C148.055 343.242 147.059 341.992 147.059 339.834V339.824C147.059 337.705 148.045 336.406 149.578 336.406C150.867 336.406 151.609 337.217 151.815 338.223L151.834 338.311H154.129L154.119 338.232C153.973 336.162 152.273 334.434 149.549 334.434C146.531 334.434 144.578 336.504 144.578 339.805V339.814C144.578 343.135 146.502 345.205 149.578 345.205ZM159.36 345.205C160.923 345.205 161.987 344.482 162.524 343.379H162.573V345H165.005V334.648H162.573V340.645C162.573 342.148 161.685 343.154 160.288 343.154C158.901 343.154 158.218 342.324 158.218 340.859V334.648H155.786V341.338C155.786 343.74 157.085 345.205 159.36 345.205ZM168.518 333.477H170.363L171.818 331.436L173.303 333.477H175.148L172.863 330.293H170.783L168.518 333.477ZM171.828 345.205C174.865 345.205 176.838 343.184 176.838 339.824V339.805C176.838 336.465 174.836 334.434 171.818 334.434C168.811 334.434 166.818 336.484 166.818 339.805V339.824C166.818 343.174 168.781 345.205 171.828 345.205ZM171.838 343.242C170.285 343.242 169.299 342.002 169.299 339.824V339.805C169.299 337.656 170.305 336.406 171.818 336.406C173.361 336.406 174.357 337.646 174.357 339.805V339.824C174.357 341.992 173.371 343.242 171.838 343.242ZM171.828 349.141C172.6 349.141 173.186 348.535 173.186 347.812C173.186 347.08 172.6 346.484 171.828 346.484C171.076 346.484 170.471 347.08 170.471 347.812C170.471 348.535 171.076 349.141 171.828 349.141ZM183.212 345.205C185.829 345.205 187.577 343.564 187.763 341.406L187.772 341.338H185.478L185.458 341.426C185.233 342.51 184.452 343.242 183.222 343.242C181.688 343.242 180.692 341.992 180.692 339.834V339.824C180.692 337.705 181.679 336.406 183.212 336.406C184.501 336.406 185.243 337.217 185.448 338.223L185.468 338.311H187.763L187.753 338.232C187.606 336.162 185.907 334.434 183.183 334.434C180.165 334.434 178.212 336.504 178.212 339.805V339.814C178.212 343.135 180.136 345.205 183.212 345.205ZM198.382 348.623C201.38 348.623 203.265 347.051 203.265 344.707V334.648H200.833V336.406H200.774C200.188 335.215 199.056 334.434 197.591 334.434C194.974 334.434 193.284 336.445 193.284 339.717V339.727C193.284 342.949 194.954 344.941 197.552 344.941C199.036 344.941 200.208 344.238 200.784 343.135H200.833V344.629C200.833 345.947 199.964 346.787 198.382 346.787C197.112 346.787 196.282 346.338 196.018 345.742L195.989 345.664H193.597L193.616 345.752C193.909 347.373 195.638 348.623 198.382 348.623ZM198.313 343.066C196.751 343.066 195.765 341.807 195.765 339.766V339.756C195.765 337.744 196.751 336.484 198.313 336.484C199.817 336.484 200.843 337.764 200.843 339.766V339.775C200.843 341.787 199.827 343.066 198.313 343.066ZM210.078 345.205C213.115 345.205 215.088 343.184 215.088 339.824V339.805C215.088 336.465 213.086 334.434 210.068 334.434C207.06 334.434 205.068 336.484 205.068 339.805V339.824C205.068 343.174 207.031 345.205 210.078 345.205ZM210.088 343.242C208.535 343.242 207.549 342.002 207.549 339.824V339.805C207.549 337.656 208.555 336.406 210.068 336.406C211.611 336.406 212.607 337.646 212.607 339.805V339.824C212.607 341.992 211.621 343.242 210.088 343.242ZM210.078 349.141C210.849 349.141 211.435 348.535 211.435 347.812C211.435 347.08 210.849 346.484 210.078 346.484C209.326 346.484 208.721 347.08 208.721 347.812C208.721 348.535 209.326 349.141 210.078 349.141ZM218.18 333.164C218.942 333.164 219.528 332.559 219.528 331.836C219.528 331.094 218.942 330.498 218.18 330.498C217.419 330.498 216.823 331.094 216.823 331.836C216.823 332.559 217.419 333.164 218.18 333.164ZM216.96 345H219.391V334.648H216.96V345Z" fill="black"/>
</svg>
